<?xml version="1.0" encoding="UTF-8" standalone="no"?>
<!-- Created with Inkscape (http://www.inkscape.org/) -->

<svg
   version="1.1"
   id="svg9297"
   width="543.77332"
   height="540.22668"
   viewBox="0 0 543.77332 540.22668"
   sodipodi:docname="wm-cypher.svg"
   inkscape:version="1.2.2 (732a01da63, 2022-12-09)"
   xmlns:inkscape="http://www.inkscape.org/namespaces/inkscape"
   xmlns:sodipodi="http://sodipodi.sourceforge.net/DTD/sodipodi-0.dtd"
   xmlns="http://www.w3.org/2000/svg"
   xmlns:svg="http://www.w3.org/2000/svg">
  <defs
     id="defs9301" />
  <sodipodi:namedview
     id="namedview9299"
     pagecolor="#ffffff"
     bordercolor="#000000"
     borderopacity="0.25"
     inkscape:showpageshadow="2"
     inkscape:pageopacity="0.0"
     inkscape:pagecheckerboard="0"
     inkscape:deskcolor="#d1d1d1"
     showgrid="false"
     inkscape:zoom="0.43685365"
     inkscape:cx="50.360115"
     inkscape:cy="271.25789"
     inkscape:window-width="1128"
     inkscape:window-height="730"
     inkscape:window-x="460"
     inkscape:window-y="1145"
     inkscape:window-maximized="1"
     inkscape:current-layer="g9305">
    <inkscape:page
       x="0"
       y="0"
       id="page9303"
       width="543.77332"
       height="540.22668" />
  </sodipodi:namedview>
  <g
     id="g9305"
     inkscape:groupmode="layer"
     inkscape:label="Page 1"
     transform="matrix(1.3333333,0,0,-1.3333333,0,540.22667)">
    <g
       id="g9307"
       transform="scale(0.1)">
      <path
         d="m 3052.07,2639.45 c -151.94,64.52 -315.06,157.39 -485.3,284.54 -166.15,-130.2 -320.4,-330.38 -455.1,-559.59 71.85,-109.7 145.34,-234.9 219.79,-377.8 235.69,364.78 478.87,531.26 665.51,565.77 18.1,29.7 36.46,58.76 55.1,87.08 z M 2936.52,2449.1 c -65.75,-25.18 -127.07,-64.98 -184.16,-116.21 2.58,-71.35 7.22,-144.19 13.89,-217.62 53.35,114.41 110.17,227.17 170.27,333.83 z M 2533,1559.29 c 29.15,75.95 60.19,154.71 93.05,234.71 -22.79,118.97 -39.76,230.09 -52.65,324.26 -58.7,-89.75 -111.43,-191.18 -158.6,-298.36 39.24,-81.72 78.67,-168.47 118.2,-260.61 z m 172.72,-108.77 c -82.22,-245.98 -137.86,-445.02 -156.79,-526.528 -3.97,-17.14 -14.26,-31.863 -31.86,-31.863 -17.59,0 -29.9,14.383 -31.94,31.863 -20.38,175.188 -77.6,409.048 -163.57,658.168 -176.87,-504.43 -247.78,-1038.18 -250.55,-1061.762 -2.06,-17.468 -14.1,-31.859 -31.69,-31.859 -17.6,0 -29.97,14.391 -32.03,31.859 -2.78,23.582 -73.68,557.332 -250.55,1061.772 -85.97,-249.13 -143.19,-482.99 -163.57,-658.178 -2.03,-17.48 -14.35,-31.863 -31.95,-31.863 -17.59,0 -27.88,14.723 -31.86,31.863 -18.92,81.508 -74.56,280.548 -156.78,526.528 -48.85,-175.1 -112.14,-349.03 -194.56,-497.161 171.05,-110.437 336.88,-242.39 465.51,-322.5 118.8,-73.988 255.6,-152.308 395.62,-220.168 140.02,67.86 276.82,146.18 395.61,220.168 128.64,80.11 294.47,212.063 465.51,322.5 -82.41,148.131 -145.7,322.061 -194.55,497.161 z M 2039.15,349.332 c -38.29,-18.352 -76.41,-35.75 -114.22,-51.992 37.79,-17.27 76,-34.809 114.22,-52.141 38.22,17.332 76.43,34.871 114.22,52.141 -37.81,16.23 -75.94,33.64 -114.22,51.992 z m -727.1,1765.938 c 6.66,73.43 11.31,146.27 13.89,217.62 -57.09,51.23 -118.41,91.03 -184.16,116.21 60.1,-106.66 116.93,-219.42 170.27,-333.83 z m 192.85,2.99 c -12.89,-94.17 -29.86,-205.28 -52.65,-324.26 32.86,-80 63.9,-158.75 93.04,-234.71 39.53,92.14 78.97,178.89 118.21,260.61 -47.17,107.19 -99.9,208.62 -158.6,298.36 z m -423.57,434.11 c 186.64,-34.51 429.82,-200.99 665.51,-565.77 74.45,142.91 147.94,268.1 219.79,377.8 -134.7,229.21 -288.95,429.39 -455.11,559.59 -170.24,-127.15 -333.35,-220.02 -485.29,-284.54 18.64,-28.32 37,-57.38 55.1,-87.08 z m 957.82,-317.53 c -71.44,-133.92 -136.26,-274.58 -193.13,-414.75 66.21,-120.33 131.09,-257.45 193.13,-413.07 62.04,155.62 126.92,292.74 193.13,413.07 -56.87,140.17 -121.7,280.83 -193.13,414.75 z M 3067.84,965.859 c 106.53,-194.429 238.04,-323.867 391.81,-339.25 185.86,-18.578 327.24,276.95 87.62,414.211 -126.22,72.29 -298.59,20.62 -479.43,-74.961 z M 2303.8,298.652 c 126.93,-44.82 248.74,-72.972 354,-72.972 59.53,0 115.41,38.73 116.82,98.25 1.51,63.371 -64.06,99.851 -127.45,100.89 -58.8,0.961 -187.97,-54.781 -343.37,-126.168 z m -529.3,0 c -155.4,71.387 -284.57,127.129 -343.38,126.168 -63.38,-1.039 -128.95,-37.519 -127.44,-100.89 1.41,-59.52 57.29,-98.25 116.82,-98.25 105.26,0 227.07,28.152 354,72.972 z M 1010.47,965.859 C 829.621,1061.44 657.25,1113.11 531.027,1040.82 291.41,903.559 432.789,608.031 618.648,626.609 772.422,641.992 903.934,771.43 1010.47,965.859 Z M 852.051,2644.77 c -158.457,257.43 -331.465,437.85 -504.227,437.85 -154,0 -246.926,-106.21 -246.926,-246.93 0,-147.07 277.508,-331.03 751.153,-190.92 z m 482.799,387.62 c -71.82,31.78 -145.23,49.16 -219.69,49.16 -102.2,0 -160.367,-29.42 -160.367,-73.9 0,-41.53 83.007,-58.06 139.127,-58.06 71.59,0 145.42,27.44 240.93,82.8 z m 1408.59,0 c 95.52,-55.36 169.35,-82.8 240.94,-82.8 56.11,0 139.13,16.53 139.13,58.06 0,44.48 -58.17,73.9 -160.38,73.9 -74.45,0 -147.86,-17.38 -219.69,-49.16 z m 482.81,-387.62 c 473.65,-140.11 751.15,43.85 751.15,190.92 0,140.72 -92.93,246.93 -246.92,246.93 -172.76,0 -345.78,-180.42 -504.23,-437.85 z m -34.63,-57.87 c -7.48,-12.83 -14.91,-25.82 -22.31,-38.95 144.86,-33.82 258.48,-140.57 258.48,-288.43 0,-290.01 -201.79,-353.13 -384.99,-353.13 -17.61,0 -31.87,14.27 -31.87,31.86 0,17.59 14.26,31.86 31.87,31.86 151.63,0 297.37,77 297.37,284.1 0,141.51 -125.65,209.64 -209.57,223.12 -118.53,-222.26 -226.33,-478.52 -316.35,-719.64 47.83,-267.51 121.6,-523.61 218.88,-724.41 121.85,67.06 242.18,113.74 349.52,113.74 202.18,0 407.5,-148.161 377.03,-345.168 C 3735.89,648.012 3612.61,537.789 3457,541.648 3232.91,547.199 3064.38,688.41 2937.2,890.891 2767.68,786.992 2598.62,661.762 2460.1,579.02 2343.85,509.59 2223.07,441.141 2102.88,380.66 c 40.13,-18.359 80.33,-35.68 120.27,-51.621 173.86,78.34 332.85,143.57 434.65,143.57 97.36,0 201.25,-39.398 211.93,-137.308 12,-109.992 -84.48,-168.031 -230.52,-165.371 -122.47,2.218 -261.7,38.601 -407.65,95.359 -38.09,-17.637 -77.24,-35.789 -116.91,-53.93 181.42,-80.148 356.95,-147.6402 482.08,-147.6402 17.59,0 31.86,-14.2696 31.86,-31.8594 C 2628.59,14.2695 2614.24,0 2596.64,0 2460.21,0 2247.67,83.9297 2039.15,177.18 1830.63,83.9297 1618.08,0 1481.65,0 c -17.59,0 -31.94,14.2695 -31.94,31.8594 0,17.5898 14.26,31.8594 31.86,31.8594 125.13,0 300.66,67.4922 482.07,147.6402 -39.67,18.141 -78.82,36.293 -116.9,53.93 -145.95,-56.758 -285.18,-93.141 -407.65,-95.359 -146.04,-2.66 -242.52,55.379 -230.52,165.371 10.69,97.91 114.57,137.308 211.93,137.308 101.8,0 260.79,-65.23 434.65,-143.57 39.94,15.941 80.14,33.262 120.27,51.621 -120.19,60.481 -240.98,128.93 -357.22,198.36 -138.53,82.742 -307.58,207.972 -477.1,311.871 C 1013.91,688.41 845.387,547.199 621.305,541.648 465.688,537.789 342.41,648.012 318.617,801.852 c -30.465,197.007 174.852,345.168 377.031,345.168 107.348,0 227.672,-46.68 349.522,-113.74 97.28,200.8 171.05,456.9 218.88,724.4 -90.02,241.13 -197.82,497.39 -316.351,719.65 -83.914,-13.48 -209.566,-81.61 -209.566,-223.12 0,-207.1 145.734,-284.1 297.377,-284.1 17.59,0 31.86,-14.27 31.86,-31.86 0,-17.59 -14.27,-31.86 -31.86,-31.86 -183.209,0 -385.002,63.12 -385.002,353.13 0,147.86 113.625,254.61 258.48,288.43 -7.398,13.13 -14.836,26.12 -22.308,38.95 C 360.848,2414.71 0,2593.08 0,2835.69 c 0,254.89 230.918,321.27 347.824,321.27 236.918,0 452.711,-191.12 642.285,-464.06 143.691,57.5 302.381,143.45 474.221,265.94 -23.96,16.61 -48.17,31.7 -72.57,45.2 -85.8,-55.96 -192.2,-111.36 -298.01,-111.36 -145.969,0 -198.488,75.14 -198.488,113.6 0,39.97 20.715,125.71 219.898,125.71 58.59,0 153.94,-10.84 275.6,-65.65 26.01,16.41 53.55,34.52 83,54.43 4.25,2.7 8.66,4.28 13.76,4.28 13.41,0 24.28,-10.87 24.28,-24.28 0,-8.2 -4.07,-15.43 -10.29,-19.82 -16.73,-11.98 -35.86,-26.01 -56.94,-40.92 23.53,-12.42 47.89,-26.47 73.02,-42.34 24.66,18.37 49.56,37.45 74.73,57.35 4.43,3.49 10.39,5.8 16.7,5.8 14.66,0 26.55,-11.88 26.55,-26.55 0,-7.86 -3.19,-15.2 -8.82,-19.84 -20.39,-16.8 -40.68,-33.09 -60.89,-48.92 140.11,-98.08 301.15,-252.57 473.29,-494.77 172.14,242.2 333.17,396.69 473.28,494.77 -20.2,15.83 -40.5,32.12 -60.88,48.92 -5.63,4.64 -8.82,11.98 -8.82,19.84 0,14.67 11.89,26.55 26.55,26.55 6.31,0 12.27,-2.31 16.7,-5.8 25.17,-19.9 50.07,-38.98 74.73,-57.35 25.12,15.87 49.49,29.92 73.02,42.34 -21.08,14.91 -40.22,28.94 -56.94,40.92 -6.22,4.39 -10.29,11.62 -10.29,19.82 0,13.41 10.87,24.28 24.28,24.28 5.1,0 9.51,-1.58 13.75,-4.28 29.46,-19.91 57,-38.02 83,-54.43 121.67,54.81 217.01,65.65 275.6,65.65 199.19,0 219.91,-85.74 219.91,-125.71 0,-38.46 -52.52,-113.6 -198.49,-113.6 -105.81,0 -212.21,55.4 -298.02,111.36 -24.4,-13.5 -48.6,-28.59 -72.57,-45.2 171.85,-122.49 330.53,-208.44 474.23,-265.94 189.58,272.94 405.36,464.06 642.29,464.06 116.9,0 347.82,-66.38 347.82,-321.27 0,-242.61 -360.84,-420.98 -886.68,-248.79 z M 2004.63,3940.23 c 0,-19.03 15.49,-34.52 34.52,-34.52 19.03,0 34.52,15.49 34.52,34.52 0,19.03 -15.49,34.51 -34.52,34.51 -19.03,0 -34.52,-15.48 -34.52,-34.51 z m -64.96,-50.46 c -7.7,15.15 -12.04,32.3 -12.04,50.46 0,18.16 4.34,35.3 12.04,50.45 l 58.85,-20.68 10.85,10.86 -20.67,58.85 c 15.15,7.69 32.29,12.03 50.45,12.03 18.16,0 35.3,-4.34 50.45,-12.03 l -20.67,-58.85 10.85,-10.86 58.85,20.68 c 7.7,-15.15 12.03,-32.29 12.03,-50.45 0,-18.16 -4.33,-35.31 -12.03,-50.46 l -58.85,20.68 -10.85,-10.86 20.67,-58.84 c -15.15,-7.7 -32.29,-12.04 -50.45,-12.04 -18.16,0 -35.3,4.34 -50.45,12.04 l 20.67,58.84 -10.85,10.86 z m -391.42,-324.34 c -5.49,-90.46 45.36,-188.91 147.22,-285.33 18.02,1.86 32.19,6.23 43.92,11.66 -139.05,108.84 -170.79,203.61 -172.27,264.99 -1.21,50.06 17.55,95.86 50.19,122.52 27.02,22.07 71.05,29.96 117.79,21.1 56.09,-10.63 164.55,-55.42 268.28,-234.39 l 6.11,5.18 -20.79,58.75 c 15.15,7.71 32.29,12.05 50.45,12.05 18.16,0 35.3,-4.34 50.45,-12.05 l -20.67,-58.84 5.98,-5.09 c 103.73,178.97 212.2,223.76 268.28,234.39 46.74,8.86 90.77,0.97 117.8,-21.1 32.64,-26.66 51.4,-72.46 50.19,-122.52 -1.48,-61.37 -33.22,-156.15 -172.27,-264.99 11.73,-5.43 25.9,-9.8 43.92,-11.66 101.85,96.42 152.71,194.87 147.22,285.32 -4.24,69.83 -41.85,118.31 -59.41,130.85 -90.72,64.8 -209.11,-2.03 -304.23,-55.72 -52.89,-29.86 -94.67,-53.44 -127.26,-53.44 -32.59,0 -74.37,23.58 -127.26,53.43 -95.12,53.7 -213.51,120.53 -304.24,55.73 -17.55,-12.54 -55.16,-61.02 -59.4,-130.84 z m 525.42,-134.99 c 0,19.03 -15.49,34.52 -34.52,34.52 -19.03,0 -34.52,-15.49 -34.52,-34.52 0,-19.03 15.49,-34.52 34.52,-34.52 19.03,0 34.52,15.49 34.52,34.52 z m 76.99,0 c 0,-18.16 -4.33,-35.3 -12.03,-50.45 l -58.85,20.67 -11.06,-11 h 0.27 c 0,0 47.15,-91.98 113.54,-91.98 50.37,0 48.74,26 75.37,31.02 -9.92,3.85 -16.96,13.46 -16.96,24.74 0,8.98 4.47,16.9 11.29,21.7 -7.83,12.2 -18.05,19.45 -27.27,19.45 -13.54,0 -23.12,-14.92 -26.26,-40.93 l -2.2,-2.3 -2.82,1.45 c -18.53,37.95 -13.7,59.87 -6.4,71.57 7.14,11.42 19.76,17.97 34.65,17.97 7.66,0 15.28,-1.77 22.13,-5.08 -14.18,30.49 -26.39,67.55 21.64,111.16 h 3.58 c 48.03,-43.61 35.83,-80.68 21.64,-111.16 6.86,3.31 14.47,5.08 22.13,5.08 14.88,0 27.51,-6.55 34.64,-17.97 7.31,-11.71 12.14,-33.62 -6.38,-71.57 l -2.83,-1.45 -2.19,2.3 c -3.15,26.01 -12.73,40.93 -26.27,40.93 -9.22,0 -19.44,-7.25 -27.27,-19.44 6.82,-4.81 11.29,-12.73 11.29,-21.71 0,-11.49 -7.31,-21.24 -17.52,-24.94 11.75,-2.71 21.5,-10.41 33.27,-18.97 137.34,104.32 168.19,192.19 169.54,247.99 1.15,47.46 -19.13,81.26 -38.49,97.07 -15.31,12.51 -47.43,22.88 -91.71,14.48 -48.32,-9.17 -140.11,-47.18 -232.86,-196.04 l 22.36,7.86 c 7.7,-15.15 12.03,-32.29 12.03,-50.45 z m -223.03,0 c 0,18.16 4.34,35.3 12.04,50.45 l 22.34,-7.85 c -92.74,148.86 -184.52,186.87 -232.84,196.03 -44.27,8.4 -76.4,-1.97 -91.7,-14.48 -19.37,-15.81 -39.65,-49.62 -38.5,-97.07 1.35,-55.81 32.2,-143.67 169.54,-247.99 11.77,8.56 21.53,16.26 33.27,18.97 -10.21,3.7 -17.53,13.45 -17.53,24.94 0,8.98 4.47,16.9 11.3,21.71 -7.83,12.19 -18.05,19.44 -27.27,19.44 -13.54,0 -23.12,-14.92 -26.27,-40.93 l -2.19,-2.3 -2.83,1.45 c -18.52,37.95 -13.69,59.87 -6.39,71.57 7.14,11.42 19.76,17.97 34.64,17.97 7.66,0 15.28,-1.77 22.13,-5.08 -14.18,30.48 -26.38,67.55 21.65,111.16 h 3.57 c 48.04,-43.61 35.84,-80.67 21.65,-111.16 6.85,3.31 14.47,5.08 22.13,5.08 14.88,0 27.51,-6.55 34.64,-17.97 7.31,-11.7 12.14,-33.62 -6.39,-71.57 l -2.82,-1.45 -2.2,2.3 c -3.15,26.01 -12.72,40.93 -26.27,40.93 -9.21,0 -19.44,-7.25 -27.26,-19.45 6.82,-4.8 11.29,-12.72 11.29,-21.7 0,-11.28 -7.04,-20.89 -16.96,-24.74 26.63,-5.02 25,-31.02 75.37,-31.02 66.38,0 113.54,91.98 113.54,91.98 h 0.27 l -11.05,10.98 -58.86,-20.65 c -7.7,15.15 -12.04,32.29 -12.04,50.45 z m 435.72,-270.83 -2.13,16.19 -3.46,-0.25 c -14.65,0 -26.54,11.88 -26.54,26.55 0,13.49 10.07,24.6 23.09,26.3 l -2.12,16.18 h -313.04 -0.97 -312.07 l -2.12,-16.18 c 13.03,-1.7 23.09,-12.81 23.09,-26.3 0,-14.67 -11.88,-26.55 -26.55,-26.55 l -3.45,0.25 -2.13,-16.19 h 305.19 v 0.04 h 33.45 v -0.04 z m -846.9,407.75 c 0.59,9.74 1.74,19.03 3.29,27.93 -6.12,-8.08 -16.61,-12.28 -27.13,-9.86 -14.29,3.3 -23.2,17.56 -19.9,31.85 3.3,14.28 17.56,23.19 31.85,19.9 10.37,-2.4 17.88,-10.58 19.97,-20.34 4.89,18.06 11.48,33.98 18.7,47.66 -8.33,-5.87 -19.67,-6.66 -28.97,-1.07 -12.57,7.55 -16.64,23.87 -9.08,36.44 7.55,12.56 23.86,16.63 36.43,9.08 9.19,-5.52 13.81,-15.73 12.69,-25.73 12.22,18.49 24.64,31.07 32.73,37.39 -10.36,-1.62 -21.14,3.01 -26.87,12.55 -7.55,12.57 -3.49,28.88 9.08,36.43 12.57,7.55 28.88,3.49 36.44,-9.08 5.42,-9.04 4.82,-19.99 -0.59,-28.24 15.13,8.57 30.69,14.5 46.54,18.06 -9.8,2.79 -17.53,11.1 -19.04,21.83 -2.04,14.52 8.08,27.95 22.6,29.99 14.52,2.04 27.94,-8.08 29.98,-22.6 1.47,-10.4 -3.33,-20.22 -11.5,-25.71 16.74,1.61 33.69,0.93 50.69,-1.43 -8.63,5.77 -13.44,16.33 -11.33,27.16 2.8,14.39 16.73,23.79 31.13,21 14.39,-2.8 23.79,-16.74 20.99,-31.13 -2.05,-10.56 -10.11,-18.42 -19.94,-20.76 16.76,-3.64 33.49,-8.72 50,-14.84 -6.7,7.31 -9.04,18.08 -5.08,27.89 5.49,13.6 20.97,20.16 34.56,14.67 13.6,-5.49 20.17,-20.97 14.68,-34.56 -3.93,-9.72 -12.95,-15.81 -22.74,-16.52 16.13,-6.83 31.96,-14.43 47.34,-22.32 -5.72,7.95 -6.84,18.75 -1.93,27.98 6.89,12.95 22.96,17.87 35.91,10.98 12.95,-6.88 17.86,-22.96 10.98,-35.91 -4.87,-9.16 -14.34,-14.26 -24.05,-14.05 14.81,-7.99 29.1,-16.05 42.67,-23.71 44.94,-25.36 87.38,-49.32 111.6,-49.32 24.22,0 66.66,23.96 111.6,49.32 13.58,7.67 27.88,15.73 42.69,23.72 -9.81,-0.33 -19.42,4.79 -24.34,14.04 -6.89,12.95 -1.97,29.03 10.98,35.91 12.95,6.89 29.02,1.97 35.9,-10.98 4.95,-9.32 3.77,-20.23 -2.09,-28.2 15.51,7.96 31.47,15.63 47.73,22.53 -9.87,0.62 -19.01,6.74 -22.96,16.53 -5.49,13.59 1.07,29.07 14.66,34.56 13.6,5.49 29.08,-1.07 34.57,-14.67 3.99,-9.88 1.6,-20.73 -5.22,-28.05 16.59,6.18 33.4,11.3 50.25,14.98 -9.88,2.3 -17.99,10.18 -20.05,20.78 -2.8,14.39 6.6,28.33 20.99,31.13 14.4,2.79 28.34,-6.61 31.13,-21 2.12,-10.85 -2.71,-21.44 -11.39,-27.2 17,2.39 33.97,3.08 50.71,1.49 -8.14,5.51 -12.92,15.3 -11.46,25.69 2.04,14.52 15.47,24.64 29.99,22.6 14.52,-2.04 24.64,-15.47 22.6,-29.99 -1.51,-10.68 -9.18,-18.96 -18.91,-21.79 15.75,-3.52 31.21,-9.39 46.24,-17.85 -5.26,8.23 -5.8,19.05 -0.43,27.99 7.56,12.57 23.88,16.63 36.44,9.08 12.57,-7.55 16.64,-23.86 9.09,-36.43 -5.67,-9.44 -16.27,-14.08 -26.52,-12.62 8.02,-6.29 20.26,-18.69 32.34,-36.85 -0.93,9.85 3.68,19.82 12.73,25.26 12.56,7.55 28.87,3.48 36.43,-9.08 7.56,-12.57 3.49,-28.89 -9.08,-36.44 -9.15,-5.49 -20.27,-4.81 -28.56,0.8 7.09,-13.49 13.57,-29.13 18.42,-46.85 2.24,9.53 9.66,17.44 19.84,19.8 14.29,3.29 28.55,-5.62 31.84,-19.9 3.3,-14.29 -5.6,-28.55 -19.89,-31.85 -10.33,-2.38 -20.62,1.63 -26.79,9.43 1.52,-8.76 2.64,-17.92 3.22,-27.51 0.44,-7.19 0.56,-14.81 0.31,-22.82 4.81,8.47 14.09,13.99 24.48,13.45 14.64,-0.77 25.89,-13.26 25.12,-27.91 -0.77,-14.64 -13.26,-25.89 -27.9,-25.12 -10.8,0.57 -19.73,7.51 -23.38,16.99 -8.07,-68.64 -45.44,-160.71 -156.37,-265.51 8.05,-85.74 29.07,-113.66 29.07,-131.33 0,-14.67 -11.9,-26.55 -26.56,-26.55 -14.22,0 -347.26,0 -367.47,0 h -0.97 c -20.19,0 -352.28,0 -366.5,0 -14.67,0 -26.55,11.88 -26.55,26.55 0,17.67 21,45.59 29.06,131.33 -111.19,105.05 -148.48,197.32 -156.43,266 -3.53,-9.73 -12.6,-16.91 -23.59,-17.48 -14.65,-0.77 -27.14,10.48 -27.9,25.12 -0.77,14.65 10.48,27.14 25.12,27.91 10.61,0.56 20.06,-5.21 24.77,-13.98 -0.27,8.2 -0.16,16.01 0.29,23.36 z m 533.32,244.77 v -73.7 h 73.68 c -4.79,38.44 -35.25,68.9 -73.68,73.7 z m -10.62,-169.28 c 43.33,0 79.08,32.43 84.3,74.35 h -168.61 c 5.23,-41.92 40.98,-74.35 84.31,-74.35 z m -84.31,95.58 h 73.69 v 73.7 c -38.43,-4.8 -68.9,-35.26 -73.69,-73.7 z m 275.48,-509.78 c -14.66,0 -26.55,-11.89 -26.55,-26.55 0,-14.67 11.89,-26.55 26.55,-26.55 14.66,0 26.55,11.88 26.55,26.55 0,14.66 -11.89,26.55 -26.55,26.55 z m -127.45,0 c -14.67,0 -26.55,-11.89 -26.55,-26.55 0,-14.67 11.88,-26.55 26.55,-26.55 14.67,0 26.56,11.88 26.56,26.55 0,14.66 -11.89,26.55 -26.56,26.55 z m -127.45,0 c -14.66,0 -26.54,-11.89 -26.54,-26.55 0,-14.67 11.88,-26.55 26.54,-26.55 14.67,0 26.56,11.88 26.56,26.55 0,14.66 -11.89,26.55 -26.56,26.55 z m -100.89,-26.55 c 0,-14.67 -11.89,-26.55 -26.55,-26.55 -14.66,0 -26.55,11.88 -26.55,26.55 0,14.66 11.89,26.55 26.55,26.55 14.66,0 26.55,-11.89 26.55,-26.55"
         style="fill:#92400e;fill-opacity:1;fill-rule:evenodd;stroke:none"
         id="path9309" />
    </g>
  </g>
</svg>
