<?xml version="1.0" encoding="UTF-8" standalone="no"?>
<!-- Created with Inkscape (http://www.inkscape.org/) -->

<svg
   width="54.193897mm"
   height="67.456406mm"
   viewBox="0 0 54.193897 67.456405"
   version="1.1"
   id="svg2504"
   xml:space="preserve"
   inkscape:version="1.2.2 (732a01da63, 2022-12-09)"
   sodipodi:docname="cockroachdb.svg"
   xmlns:inkscape="http://www.inkscape.org/namespaces/inkscape"
   xmlns:sodipodi="http://sodipodi.sourceforge.net/DTD/sodipodi-0.dtd"
   xmlns="http://www.w3.org/2000/svg"
   xmlns:svg="http://www.w3.org/2000/svg"><sodipodi:namedview
     id="namedview2506"
     pagecolor="#ffffff"
     bordercolor="#000000"
     borderopacity="0.25"
     inkscape:showpageshadow="2"
     inkscape:pageopacity="0.0"
     inkscape:pagecheckerboard="0"
     inkscape:deskcolor="#d1d1d1"
     inkscape:document-units="mm"
     showgrid="false"
     inkscape:zoom="0.2102413"
     inkscape:cx="185.50113"
     inkscape:cy="135.55852"
     inkscape:window-width="1128"
     inkscape:window-height="730"
     inkscape:window-x="460"
     inkscape:window-y="1145"
     inkscape:window-maximized="1"
     inkscape:current-layer="layer1" /><defs
     id="defs2501" /><g
     inkscape:label="Layer 1"
     inkscape:groupmode="layer"
     id="layer1"
     transform="translate(66.250069,-113.71531)"><path
       style="fill:#92400e;stroke-width:0.264583;fill-opacity:1"
       d="m -41.923125,179.22802 c -6.824593,-5.27516 -11.260328,-12.1148 -13.397701,-20.65845 -0.892587,-3.56791 -1.143647,-10.17153 -0.528937,-13.91259 1.29466,-7.87913 4.812933,-14.73458 10.43104,-20.32515 1.510837,-1.50344 2.707058,-2.77304 2.658266,-2.82134 -0.374578,-0.37086 -4.798242,-2.15979 -6.849705,-2.77003 -3.538626,-1.05262 -7.01086,-1.43819 -11.19411,-1.24303 -1.911879,0.0892 -3.780913,0.23418 -4.153409,0.3222 -0.633729,0.14974 -0.697507,0.0723 -0.992187,-1.2043 -0.526889,-2.2826 -0.522067,-2.29189 1.360395,-2.61971 2.378295,-0.41416 8.876468,-0.35943 11.68614,0.0984 4.239027,0.69078 8.09394,2.03979 11.749466,4.11166 l 1.95988,1.11082 0.950537,-0.57612 c 3.6343,-2.20278 8.550349,-3.98279 12.856784,-4.65522 2.854777,-0.44576 9.354661,-0.49558 11.68614,-0.0896 1.874626,0.32646 1.88163,0.33968 1.317406,2.48639 l -0.347708,1.32291 -1.433126,-0.13229 c -3.43059,-0.31668 -9.888585,-0.11651 -12.016462,0.37246 -2.9082,0.66828 -5.752513,1.64507 -7.844613,2.694 l -1.759196,0.88201 2.595615,2.55014 c 4.259993,4.18536 7.176543,8.776 9.066853,14.27118 1.509607,4.38847 1.896137,6.81319 1.897999,11.90625 0.0019,4.81401 -0.304813,6.90797 -1.621755,11.07683 -1.863233,5.89818 -6.049725,12.3343 -10.441885,16.05289 -2.289331,1.93825 -4.606769,3.69431 -4.874069,3.69338 -0.136464,-4.8e-4 -1.37921,-0.87516 -2.761658,-1.94375 z m 0.738646,-15.31945 -0.07719,-10.91406 -0.73882,-1.4024 c -0.40712,-0.77278 -2.014837,-2.73499 -3.581001,-4.3706 -1.563203,-1.63251 -3.414075,-3.76964 -4.113054,-4.74917 -0.698976,-0.97953 -1.310026,-1.78096 -1.357889,-1.78096 -0.04786,0 -0.360632,1.10133 -0.695044,2.4474 -0.524648,2.11179 -0.606301,3.10046 -0.595461,7.20989 0.01175,4.45654 0.06513,4.96184 0.830853,7.86528 1.420944,5.38792 4.275698,10.58001 8.023995,14.59365 1.034999,1.10827 1.994087,2.01503 2.131306,2.01503 0.153479,0 0.219784,-4.20006 0.172302,-10.91406 z m 7.53151,7.50321 c 6.681859,-7.63574 9.35864,-18.82752 6.920362,-28.93446 -0.459338,-1.90402 -0.697233,-2.14028 -1.198856,-1.19063 -0.65414,1.23839 -2.820776,3.86778 -5.413039,6.56918 -4.148736,4.3234 -3.999844,3.61018 -3.882268,18.59703 l 0.06614,8.4313 1.119791,-1.01166 c 0.615887,-0.55641 1.690426,-1.66376 2.387865,-2.46076 z m -1.911311,-26.70662 c 3.432914,-3.40913 4.618599,-5.30876 4.924227,-7.8893 0.207976,-1.75605 -0.470429,-4.28837 -1.607786,-6.00148 -0.948078,-1.42801 -4.270433,-4.91561 -5.949653,-6.24558 l -0.975649,-0.77273 -2.010722,1.6919 c -2.871422,2.41614 -5.387679,5.6476 -6.040025,7.7568 -0.286038,0.92483 -0.52007,2.13462 -0.52007,2.68841 0,1.32686 0.834774,3.96568 1.590064,5.02639 1.749173,2.45648 6.304282,6.87258 7.091055,6.87465 0.190707,5.3e-4 1.76506,-1.40758 3.498559,-3.12906 z"
       id="path3054" /></g></svg>
