<?xml version="1.0" encoding="UTF-8" standalone="no"?>
<!-- Created with Inkscape (http://www.inkscape.org/) -->

<svg
   width="144.41377mm"
   height="149.09447mm"
   viewBox="0 0 144.41377 149.09447"
   version="1.1"
   id="svg4193"
   xml:space="preserve"
   inkscape:version="1.2.2 (732a01da63, 2022-12-09)"
   sodipodi:docname="remotion.svg"
   xmlns:inkscape="http://www.inkscape.org/namespaces/inkscape"
   xmlns:sodipodi="http://sodipodi.sourceforge.net/DTD/sodipodi-0.dtd"
   xmlns="http://www.w3.org/2000/svg"
   xmlns:svg="http://www.w3.org/2000/svg"><sodipodi:namedview
     id="namedview4195"
     pagecolor="#ffffff"
     bordercolor="#000000"
     borderopacity="0.25"
     inkscape:showpageshadow="2"
     inkscape:pageopacity="0.0"
     inkscape:pagecheckerboard="0"
     inkscape:deskcolor="#d1d1d1"
     inkscape:document-units="mm"
     showgrid="false"
     inkscape:zoom="0.2973261"
     inkscape:cx="472.54513"
     inkscape:cy="277.47312"
     inkscape:window-width="1128"
     inkscape:window-height="730"
     inkscape:window-x="-6"
     inkscape:window-y="523"
     inkscape:window-maximized="1"
     inkscape:current-layer="layer1" /><defs
     id="defs4190" /><g
     inkscape:label="Layer 1"
     inkscape:groupmode="layer"
     id="layer1"
     transform="translate(-47.406558,-120.59757)"><path
       style="fill:#92400e;fill-opacity:0.33;stroke-width:0.705556"
       d="m 73.057068,269.31493 c -6.57601,-1.3844 -13.35906,-6.34391 -16.82193,-12.29957 -4.47998,-7.70496 -8.82858,-36.05637 -8.82858,-57.55943 0,-21.65624 4.0448,-47.49572 9.85184,-62.93671 3.02091,-8.03263 11.52658,-14.6878 20.14859,-15.76505 4.74282,-0.59258 12.70977,0.49315 24.327352,3.31529 21.21497,5.15353 41.77916,14.99309 58.56111,28.02033 11.99502,9.31131 25.37612,24.36088 29.5682,33.25503 2.48673,5.27598 2.62538,14.83732 0.28868,19.90696 -3.75687,8.15079 -18.91941,24.85665 -30.43809,33.53624 -8.035,6.05455 -17.58684,11.83299 -26.87623,16.25892 -19.19804,9.14691 -49.618532,16.4074 -59.780942,14.26799 z m 23.46957,-16.60379 c 25.782462,-4.41321 48.751642,-16.06164 65.886972,-33.41347 19.40412,-19.64928 19.05061,-29.2374 -1.84117,-49.93727 -15.35353,-15.21248 -37.32954,-26.65615 -60.00727,-31.24788 -13.033832,-2.63906 -19.267462,-1.63474 -25.172562,4.05563 -3.67779,3.54404 -5.07299,6.50318 -7.49486,15.89614 -3.67136,14.23892 -4.58824,22.36317 -4.59173,40.68608 -0.005,27.70599 3.54313,43.97636 10.97894,50.34113 5.4667,4.67929 10.89249,5.56229 22.24168,3.61964 z"
       id="path4743"
       sodipodi:nodetypes="sssssssssssssssssscss" /><path
       style="fill:#92400e;fill-opacity:0.66;stroke-width:0.705556"
       d="m 80.133998,252.64271 c -6.50981,-2.30873 -10.96976,-8.13699 -13.16455,-17.20345 -2.87051,-11.85777 -3.66665,-19.83103 -3.66343,-36.68889 0.004,-18.32291 0.92037,-26.44716 4.59173,-40.68608 2.42187,-9.39296 3.81707,-12.3521 7.49486,-15.89615 5.9051,-5.69036 12.13873,-6.69468 25.172562,-4.05562 22.67773,4.59173 44.65374,16.0354 60.00727,31.24788 20.89178,20.69987 21.24529,30.28799 1.84117,49.93727 -17.13533,17.35183 -40.10451,29.00026 -65.886972,33.41347 -7.65248,1.30988 -12.56406,1.28938 -16.39264,-0.0684 z m 29.126552,-16.88489 c 17.41761,-4.0652 30.97921,-11.79988 43.05236,-24.55433 7.27022,-7.68048 8.94533,-10.995 8.56616,-16.94972 -0.24945,-3.91759 -0.6554,-4.94743 -3.5322,-8.96068 -11.29693,-15.75971 -30.13657,-27.35674 -51.56711,-31.74295 -4.53247,-0.92766 -8.271052,-1.31218 -10.042642,-1.03289 -4.23876,0.66822 -8.53421,3.51457 -10.58507,7.0141 -2.21745,3.7838 -4.8586,13.97501 -6.01963,23.22751 -1.75976,14.02396 0.36441,40.1898 3.80237,46.83807 1.71688,3.32008 5.48395,6.52758 8.90513,7.58232 3.80892,1.17429 7.63762,0.86189 17.420632,-1.42143 z"
       id="path4741"
       sodipodi:nodetypes="sscsssssssssssssssssss" /><path
       style="fill:#92400e;fill-opacity:1;stroke:#92400e;stroke-width:5;stroke-dasharray:none;stroke-opacity:1"
       d="m 91.503778,235.79052 c -3.80796,-1.34646 -7.08174,-5.0847 -8.44262,-9.64042 -4.88512,-16.3535 -4.42383,-43.5598 1.04107,-61.40117 1.18101,-3.85567 2.03879,-5.24266 4.68026,-7.56778 1.82048,-1.60244 4.30535,-3.04782 5.68462,-3.30658 8.488312,-1.59241 29.246162,4.97963 42.013172,13.30158 10.68214,6.96297 20.88978,17.84483 22.85049,24.35977 1.81967,6.04629 -0.0805,10.65474 -7.85608,19.05307 -11.82134,12.76814 -29.2447,21.92532 -47.89249,25.17082 -7.531832,1.31086 -8.451372,1.3132 -12.078422,0.0307 z"
       id="path4735" /></g></svg>
