<?xml version="1.0" encoding="UTF-8" standalone="no"?>
<svg
   viewBox="0 0 24 24"
   version="1.1"
   id="svg4"
   sodipodi:docname="svelte.svg"
   inkscape:version="1.2.2 (732a01da63, 2022-12-09)"
   xmlns:inkscape="http://www.inkscape.org/namespaces/inkscape"
   xmlns:sodipodi="http://sodipodi.sourceforge.net/DTD/sodipodi-0.dtd"
   xmlns="http://www.w3.org/2000/svg"
   xmlns:svg="http://www.w3.org/2000/svg">
  <defs
     id="defs8" />
  <sodipodi:namedview
     id="namedview6"
     pagecolor="#ffffff"
     bordercolor="#000000"
     borderopacity="0.25"
     inkscape:showpageshadow="2"
     inkscape:pageopacity="0.0"
     inkscape:pagecheckerboard="0"
     inkscape:deskcolor="#d1d1d1"
     showgrid="false"
     inkscape:zoom="9.8333333"
     inkscape:cx="2.1355932"
     inkscape:cy="12.050847"
     inkscape:window-width="1128"
     inkscape:window-height="730"
     inkscape:window-x="460"
     inkscape:window-y="1145"
     inkscape:window-maximized="1"
     inkscape:current-layer="svg4" />
  <path
     d="m20.68 3.17a7.3 7.3 0 0 0 -9.8-2.1l-5.6 3.56a6.36 6.36 0 0 0 -2.89 4.3 6.66 6.66 0 0 0 .67 4.33 6.14 6.14 0 0 0 -.95 2.4 6.84 6.84 0 0 0 1.16 5.16 7.33 7.33 0 0 0 9.8 2.12l5.6-3.56a6.36 6.36 0 0 0 2.88-4.3 6.66 6.66 0 0 0 -.67-4.32 6.79 6.79 0 0 0 -.2-7.59zm-10.36 17.96a4.43 4.43 0 0 1 -4.76-1.77c-.65-.9-.89-2.01-.7-3.11l.11-.53.1-.33.3.2c.66.5 1.4.86 2.19 1.1l.2.07-.02.2c-.02.28.06.59.22.83.33.47.9.7 1.45.55.12-.04.24-.08.34-.14l5.58-3.56c.28-.18.46-.45.53-.77.06-.33-.02-.67-.2-.94-.33-.46-.9-.67-1.45-.53-.12.04-.25.09-.35.15l-2.11 1.34a4.43 4.43 0 0 1 -5.9-1.28 4.1 4.1 0 0 1 -.7-3.11 3.85 3.85 0 0 1 1.77-2.6l5.57-3.56c.35-.22.73-.38 1.14-.5 1.8-.47 3.7.24 4.76 1.76a4.12 4.12 0 0 1 .57 3.64l-.1.33-.29-.2a7.42 7.42 0 0 0 -2.2-1.1l-.2-.06.02-.2c.02-.29-.06-.6-.22-.84-.33-.47-.9-.67-1.45-.53-.12.04-.24.08-.34.14l-5.59 3.59c-.28.19-.46.45-.52.78-.06.32.02.67.2.93.32.47.9.67 1.44.53.13-.04.25-.08.35-.14l2.13-1.36c.35-.23.74-.4 1.14-.51 1.81-.47 3.7.24 4.76 1.77.65.9.9 2.01.72 3.1a3.85 3.85 0 0 1 -1.75 2.6l-5.58 3.55a4.9 4.9 0 0 1 -1.16.51z"
     id="path2"
     style="fill:#92400e;fill-opacity:1" />
</svg>
