<?xml version="1.0" encoding="UTF-8" standalone="no"?>
<svg
   viewBox="0 0 32 32"
   version="1.1"
   id="svg2610"
   sodipodi:docname="ts.svg"
   inkscape:version="1.2.2 (732a01da63, 2022-12-09)"
   xmlns:inkscape="http://www.inkscape.org/namespaces/inkscape"
   xmlns:sodipodi="http://sodipodi.sourceforge.net/DTD/sodipodi-0.dtd"
   xmlns="http://www.w3.org/2000/svg"
   xmlns:svg="http://www.w3.org/2000/svg">
  <defs
     id="defs2614" />
  <sodipodi:namedview
     id="namedview2612"
     pagecolor="#ffffff"
     bordercolor="#000000"
     borderopacity="0.25"
     inkscape:showpageshadow="2"
     inkscape:pageopacity="0.0"
     inkscape:pagecheckerboard="0"
     inkscape:deskcolor="#d1d1d1"
     showgrid="false"
     inkscape:zoom="7.375"
     inkscape:cx="-7.7288136"
     inkscape:cy="16.20339"
     inkscape:window-width="1128"
     inkscape:window-height="730"
     inkscape:window-x="-6"
     inkscape:window-y="523"
     inkscape:window-maximized="1"
     inkscape:current-layer="svg2610" />
  <path
     id="rect2606"
     style="fill:#92400e;fill-opacity:1"
     d="M 3.3125 2 C 2.5856527 2 2 2.5856527 2 3.3125 L 2 28.6875 C 2 29.414347 2.5856527 30 3.3125 30 L 28.6875 30 C 29.414347 30 30 29.414347 30 28.6875 L 30 3.3125 C 30 2.5856527 29.414347 2 28.6875 2 L 3.3125 2 z M 23.566406 13.371094 A 12.426 12.426 0 0 1 25.466797 13.5 A 7.509 7.509 0 0 1 26.992188 13.900391 L 26.992188 16.763672 A 4.657 4.657 0 0 0 26.240234 16.341797 A 5.994 5.994 0 0 0 25.404297 16.041016 A 6.292 6.292 0 0 0 24.548828 15.863281 A 5.942 5.942 0 0 0 23.740234 15.806641 A 4.211 4.211 0 0 0 22.785156 15.90625 A 2.439 2.439 0 0 0 22.058594 16.189453 A 1.4 1.4 0 0 0 21.599609 16.625 A 1.039 1.039 0 0 0 21.4375 17.195312 A 1.091 1.091 0 0 0 21.619141 17.814453 A 2.089 2.089 0 0 0 22.134766 18.332031 A 5.5 5.5 0 0 0 22.947266 18.810547 C 23.267265 18.967213 23.627344 19.128922 24.027344 19.294922 A 12.027 12.027 0 0 1 25.505859 20.029297 A 5.236 5.236 0 0 1 26.628906 20.90625 A 3.409 3.409 0 0 1 27.345703 22.023438 A 4.469 4.469 0 0 1 27.158203 25.417969 A 3.542 3.542 0 0 1 25.978516 26.683594 A 5.11 5.11 0 0 1 24.242188 27.382812 A 9.968 9.968 0 0 1 22.154297 27.59375 A 11.56 11.56 0 0 1 20.009766 27.402344 A 6.492 6.492 0 0 1 18.244141 26.826172 L 18.244141 23.759766 A 5.874 5.874 0 0 0 20.050781 24.804688 A 5.773 5.773 0 0 0 22.019531 25.154297 A 4.377 4.377 0 0 0 23.037109 25.048828 A 2.381 2.381 0 0 0 23.763672 24.757812 A 1.269 1.269 0 0 0 24.197266 24.316406 A 1.1 1.1 0 0 0 24.341797 23.763672 A 1.2 1.2 0 0 0 24.111328 23.044922 A 2.463 2.463 0 0 0 23.486328 22.460938 A 6.458 6.458 0 0 0 22.544922 21.943359 C 22.181589 21.77736 21.78914 21.606927 21.369141 21.433594 A 6 6 0 0 1 18.974609 19.794922 A 3.588 3.588 0 0 1 18.185547 17.455078 A 3.731 3.731 0 0 1 18.615234 15.609375 A 3.655 3.655 0 0 1 19.787109 14.339844 A 5.239 5.239 0 0 1 21.503906 13.605469 A 8.767 8.767 0 0 1 23.566406 13.371094 z M 5.9375 13.59375 L 17.091797 13.59375 L 17.091797 16.121094 L 13.091797 16.121094 L 13.091797 27.375 L 9.9199219 27.375 L 9.9199219 16.121094 L 5.9375 16.121094 L 5.9375 13.59375 z " />
</svg>
